<?xml version="1.0" encoding="utf-8"?>
<!-- Generator: Adobe Illustrator 27.4.0, SVG Export Plug-In . SVG Version: 6.00 Build 0)  -->
<svg version="1.1" id="logo" xmlns="http://www.w3.org/2000/svg" xmlns:xlink="http://www.w3.org/1999/xlink" x="0px" y="0px"
	 viewBox="0 0 709.2 277.7" style="enable-background:new 0 0 709.2 277.7;" xml:space="preserve">
<style type="text/css">
	.st0{fill:#BF2C2C;}
</style>
<g>
	<path class="st0" d="M12.9,0l12.9,30.9H0L12.9,0L12.9,0z"/>
	<path class="st0" d="M47.1,22.6c0,4.6-3.7,8.3-8.3,8.3h-9.9V0.6h8.2c4.5,0,8.1,3.6,8.1,8.1S44,13.6,42.2,15
		C45.1,16.3,47.1,19.2,47.1,22.6z"/>
	<path class="st0" d="M68.5,23.1c0,5.3-4.8,8.2-9.9,8.2s-7.4-0.7-9-2.6L58,17.5c-3.6-1.7-7.7-4.4-7.7-9s4.5-8.2,9.7-8.2
		s6.5,1,9.3,2.6c-8.6,11.1-8.6,11.1-8.6,11.1C64.6,15.5,68.5,18.4,68.5,23.1L68.5,23.1z"/>
	<path class="st0" d="M94,0.6v3.8h-5.9v26.5H77.8V4.5H72V0.6L94,0.6L94,0.6z"/>
	<path class="st0" d="M119.4,30.9h-22V0.6h11.2c4.7,0,8.4,3.8,8.4,8.4s-3.8,8.4-8.4,8.4L119.4,30.9z"/>
	<path class="st0" d="M134.4,0l12.9,30.9h-25.8L134.4,0L134.4,0z"/>
	<path class="st0" d="M172.6,27.7c-2.6,2.2-6,3.5-9.7,3.5c-8.4,0-15.2-7-15.2-15.5s6.7-15.5,15.2-15.5s7,1.3,9.7,3.5l-9.7,12l9.7,12
		V27.7z"/>
	<path class="st0" d="M197.1,0.6v3.8h-5.9v26.5H181V4.5h-5.9V0.6L197.1,0.6L197.1,0.6z"/>
	<path class="st0" d="M218.9,0.6c8.4,0,15,6.8,15,15.2s-6.7,15.2-15,15.2h-7.7V0.7L218.9,0.6L218.9,0.6z"/>
	<path class="st0" d="M246.5,17.4l7.8,9.7v3.8h-17V0.6h16.3v3.8l-7.4,9.1h7.4v3.8L246.5,17.4L246.5,17.4z"/>
	<path class="st0" d="M269.1,0.6c4.6,0,8.4,3.8,8.4,8.4s-3.8,8.4-8.4,8.4h-6.3v13.4h-4.2V0.6L269.1,0.6L269.1,0.6z"/>
	<path class="st0" d="M302.9,30.9h-22V0.6h11.2c4.7,0,8.4,3.8,8.4,8.4s-3.8,8.4-8.4,8.4L302.9,30.9z"/>
	<path class="st0" d="M315.4,17.4l7.8,9.7v3.8h-17V0.6h16.3v3.8l-7.4,9.1h7.4v3.8L315.4,17.4L315.4,17.4z"/>
	<path class="st0" d="M345.6,23.1c0,5.3-4.8,8.2-9.9,8.2c-5,0-7.4-0.7-9-2.6l8.4-11.2c-3.6-1.7-7.7-4.4-7.7-9s4.5-8.2,9.7-8.2
		s6.5,1,9.3,2.6c-8.6,11.1-8.6,11.1-8.6,11.1C341.7,15.5,345.5,18.4,345.6,23.1L345.6,23.1z"/>
	<path class="st0" d="M367.9,23.1c0,5.3-4.8,8.2-9.9,8.2s-7.4-0.7-9-2.6l8.4-11.2c-3.6-1.7-7.7-4.4-7.7-9s4.5-8.2,9.7-8.2
		s6.5,1,9.3,2.6c-8.6,11.1-8.6,11.1-8.6,11.1C364,15.5,367.8,18.4,367.9,23.1L367.9,23.1z"/>
	<path class="st0" d="M376.2,30.9h-4.2V0.6h4.2V30.9z"/>
	<path class="st0" d="M394.8,31.2c-8.4,0-15.2-7-15.2-15.5s6.8-15.5,15.2-15.5c8.4,0,15.2,6.9,15.2,15.5
		C410,24.3,403.2,31.2,394.8,31.2z"/>
	<path class="st0" d="M437,0.6v30.3h-23.6V0.1l19.4,24.2V0.6L437,0.6L437,0.6z"/>
	<path class="st0" d="M445.4,30.9h-4.2V0.6h4.2V30.9z"/>
	<path class="st0" d="M467.7,23.1c0,5.3-4.8,8.2-9.9,8.2c-5,0-7.4-0.7-9-2.6l8.4-11.2c-3.6-1.7-7.7-4.4-7.7-9s4.5-8.2,9.7-8.2
		c5.1,0,6.5,1,9.3,2.6c-8.6,11.1-8.6,11.1-8.6,11.1C463.8,15.5,467.6,18.4,467.7,23.1L467.7,23.1z"/>
	<path class="st0" d="M485.9,17.5L500,0.1v30.8h-28.1V0.1L485.9,17.5z"/>
</g>
</svg>
