<?xml version="1.0" encoding="UTF-8"?>
<svg id="Layer_2" data-name="Layer 2" xmlns="http://www.w3.org/2000/svg" viewBox="0 0 567.1 45.4">
  <g id="Layer_1-2" data-name="Layer 1">
    <g>
      <path d="m15.6,6.2l14.5,34.9H1L15.6,6.2Z" style="fill: #bf2c2c;"/>
      <path d="m54,31.7c0,5.2-4.2,9.4-9.4,9.4h-11.2V6.9h9.3c5,0,9.1,4.1,9.1,9.1s-1.3,5.4-3.4,7.1c3.3,1.4,5.6,4.8,5.6,8.6Z" style="fill: #bf2c2c;"/>
      <path d="m78.2,32.3c0,6-5.4,9.3-11.1,9.3s-8.3-.8-10.2-3l9.5-12.6c-4.1-1.9-8.6-4.9-8.6-10.2s5.1-9.2,10.9-9.2,7.3,1.1,10.5,2.9c-9.7,12.6-9.6,12.6-9.6,12.6,4.4,1.7,8.7,4.8,8.7,10.2Z" style="fill: #bf2c2c;"/>
      <path d="m106.8,6.9v4.3h-6.6v29.9h-11.5V11.2h-6.7v-4.3h24.8Z" style="fill: #bf2c2c;"/>
      <path d="m135.5,41.1h-24.8V6.9h12.7c5.3,0,9.6,4.3,9.6,9.6s-4.3,9.5-9.6,9.5l12.1,15.1Z" style="fill: #bf2c2c;"/>
      <path d="m152.5,6.2l14.5,34.9h-29.1l14.6-34.9Z" style="fill: #bf2c2c;"/>
      <path d="m195.5,37.5c-2.9,2.5-6.7,4-10.8,4-9.5,0-17.1-7.8-17.1-17.5s7.6-17.5,17.1-17.5,7.9,1.5,10.8,4l-10.8,13.5,10.8,13.5Z" style="fill: #bf2c2c;"/>
      <path d="m223.2,6.9v4.3h-6.6v29.9h-11.5V11.2h-6.7v-4.3h24.8Z" style="fill: #bf2c2c;"/>
      <path d="m247.8,6.9c9.4,0,17,7.7,17,17.1s-7.6,17.1-17,17.1h-8.7V6.9h8.7Z" style="fill: #bf2c2c;"/>
      <path d="m278.9,25.8l8.8,10.9v4.3h-19.1V6.9h18.4v4.3l-8.3,10.3h8.3v4.3h-8.1Z" style="fill: #bf2c2c;"/>
      <path d="m304.3,6.9c5.2,0,9.5,4.3,9.5,9.6s-4.3,9.5-9.5,9.5h-7.1v15.1h-4.7V6.9h11.8Z" style="fill: #bf2c2c;"/>
      <path d="m342.5,41.1h-24.8V6.9h12.7c5.3,0,9.6,4.3,9.6,9.6s-4.3,9.5-9.6,9.5l12.1,15.1Z" style="fill: #bf2c2c;"/>
      <path d="m356.6,25.8l8.8,10.9v4.3h-19.1V6.9h18.4v4.3l-8.3,10.3h8.3v4.3h-8.1Z" style="fill: #bf2c2c;"/>
      <path d="m390.6,32.3c0,6-5.4,9.3-11.1,9.3s-8.3-.8-10.2-3l9.5-12.6c-4.1-1.9-8.6-4.9-8.6-10.2s5.1-9.2,10.9-9.2,7.3,1.1,10.5,2.9c-9.7,12.6-9.6,12.6-9.6,12.6,4.4,1.7,8.7,4.8,8.7,10.2Z" style="fill: #bf2c2c;"/>
      <path d="m415.7,32.3c0,6-5.4,9.3-11.1,9.3s-8.3-.8-10.2-3l9.5-12.6c-4.1-1.9-8.6-4.9-8.6-10.2s5.1-9.2,10.9-9.2,7.3,1.1,10.5,2.9c-9.7,12.6-9.6,12.6-9.6,12.6,4.4,1.7,8.7,4.8,8.7,10.2Z" style="fill: #bf2c2c;"/>
      <path d="m425.1,41.1h-4.7V6.9h4.7v34.2Z" style="fill: #bf2c2c;"/>
      <path d="m446.1,41.5c-9.5,0-17.1-7.8-17.1-17.5s7.7-17.4,17.1-17.4,17.1,7.8,17.1,17.4-7.7,17.5-17.1,17.5Z" style="fill: #bf2c2c;"/>
      <path d="m493.6,6.9v34.2h-26.5V6.3l21.8,27.3V6.9h4.7Z" style="fill: #bf2c2c;"/>
      <path d="m503.1,41.1h-4.7V6.9h4.7v34.2Z" style="fill: #bf2c2c;"/>
      <path d="m528.2,32.3c0,6-5.4,9.3-11.1,9.3s-8.3-.8-10.2-3l9.5-12.6c-4.1-1.9-8.6-4.9-8.6-10.2s5.1-9.2,10.9-9.2,7.3,1.1,10.5,2.9c-9.7,12.6-9.6,12.6-9.6,12.6,4.4,1.7,8.7,4.8,8.7,10.2Z" style="fill: #bf2c2c;"/>
      <path d="m548.8,26l15.8-19.6v34.8h-31.7V6.3l15.8,19.6Z" style="fill: #bf2c2c;"/>
    </g>
  </g>
</svg>